<svg version="1.1" viewBox="0.0 0.0 1080.0 830.0" fill="none" stroke="none" stroke-linecap="square" stroke-miterlimit="10" xmlns:xlink="http://www.w3.org/1999/xlink" xmlns="http://www.w3.org/2000/svg"><clipPath id="p.0"><path d="m0 0l1080.0 0l0 830.0l-1080.0 0l0 -830.0z" clip-rule="nonzero"/></clipPath><g clip-path="url(#p.0)"><path fill="#ffffff" d="m0 0l1080.0 0l0 830.0l-1080.0 0z" fill-rule="evenodd"/><path fill="#000000" fill-opacity="0.0" d="m214.60892 324.07086l673.98425 0l0 75.93701l-673.98425 0z" fill-rule="evenodd"/><path fill="#434343" d="m245.03918 348.7615q-4.6875 0 -7.375 3.328125q-2.6875 3.3125 -2.6875 9.171875q0 6.125 2.578125 9.28125q2.59375 3.140625 7.484375 3.140625q2.125 0 4.109375 -0.421875q1.984375 -0.421875 4.125 -1.09375l0 4.671875q-3.921875 1.484375 -8.890625 1.484375q-7.3125 0 -11.234375 -4.421875q-3.921875 -4.4375 -3.921875 -12.6875q0 -5.1875 1.90625 -9.078125q1.90625 -3.90625 5.5 -5.96875q3.609375 -2.078125 8.453125 -2.078125q5.109375 0 9.4375 2.140625l-1.96875 4.53125q-1.671875 -0.796875 -3.5625 -1.390625q-1.875 -0.609375 -3.953125 -0.609375zm37.00772 29.109375l-5.390625 0l0 -15.484375q0 -2.921875 -1.171875 -4.359375q-1.171875 -1.4375 -3.71875 -1.4375q-3.375 0 -4.953125 2.015625q-1.578125 2.015625 -1.578125 6.765625l0 12.5l-5.359375 0l0 -35.453125l5.359375 0l0 9.0q0 2.171875 -0.28125 4.625l0.34375 0q1.09375 -1.8125 3.03125 -2.8125q1.953125 -1.015625 4.546875 -1.015625q9.171875 0 9.171875 9.234375l0 16.421875zm29.787659 -12.640625q0 6.171875 -3.171875 9.640625q-3.15625 3.453125 -8.8125 3.453125q-3.53125 0 -6.25 -1.59375q-2.703125 -1.59375 -4.15625 -4.578125q-1.453125 -2.984375 -1.453125 -6.921875q0 -6.125 3.140625 -9.5625q3.140625 -3.453125 8.859375 -3.453125q5.46875 0 8.65625 3.53125q3.1875 3.515625 3.1875 9.484375zm-18.328125 0q0 8.71875 6.4375 8.71875q6.375 0 6.375 -8.71875q0 -8.640625 -6.421875 -8.640625q-3.375 0 -4.890625 2.234375q-1.5 2.234375 -1.5 6.40625zm46.827637 0q0 6.171875 -3.171875 9.640625q-3.15625 3.453125 -8.8125 3.453125q-3.53125 0 -6.25 -1.59375q-2.703125 -1.59375 -4.15625 -4.578125q-1.453125 -2.984375 -1.453125 -6.921875q0 -6.125 3.140625 -9.5625q3.140625 -3.453125 8.859375 -3.453125q5.46875 0 8.65625 3.53125q3.1875 3.515625 3.1875 9.484375zm-18.328125 0q0 8.71875 6.4375 8.71875q6.375 0 6.375 -8.71875q0 -8.640625 -6.421875 -8.640625q-3.375 0 -4.890625 2.234375q-1.5 2.234375 -1.5 6.40625zm41.40573 5.46875q0 3.6875 -2.6875 5.65625q-2.6875 1.96875 -7.703125 1.96875q-5.03125 0 -8.078125 -1.53125l0 -4.625q4.4375 2.0625 8.265625 2.0625q4.9375 0 4.9375 -2.984375q0 -0.96875 -0.546875 -1.59375q-0.546875 -0.640625 -1.796875 -1.328125q-1.25 -0.6875 -3.484375 -1.546875q-4.34375 -1.6875 -5.890625 -3.375q-1.53125 -1.6875 -1.53125 -4.375q0 -3.234375 2.609375 -5.015625q2.609375 -1.796875 7.09375 -1.796875q4.4375 0 8.40625 1.796875l-1.734375 4.046875q-4.078125 -1.6875 -6.859375 -1.6875q-4.234375 0 -4.234375 2.40625q0 1.1875 1.109375 2.015625q1.109375 0.8125 4.8125 2.25q3.125 1.203125 4.53125 2.203125q1.421875 1.0 2.09375 2.3125q0.6875 1.3125 0.6875 3.140625zm16.791168 7.625q-5.875 0 -9.1875 -3.421875q-3.3125 -3.4375 -3.3125 -9.453125q0 -6.171875 3.0625 -9.703125q3.078125 -3.53125 8.453125 -3.53125q5.0 0 7.890625 3.03125q2.890625 3.03125 2.890625 8.34375l0 2.890625l-16.78125 0q0.109375 3.671875 1.96875 5.640625q1.875 1.96875 5.265625 1.96875q2.234375 0 4.15625 -0.421875q1.921875 -0.421875 4.140625 -1.40625l0 4.359375q-1.953125 0.9375 -3.96875 1.3125q-2.0 0.390625 -4.578125 0.390625zm-0.984375 -22.046875q-2.546875 0 -4.09375 1.625q-1.53125 1.609375 -1.828125 4.703125l11.4375 0q-0.046875 -3.125 -1.5 -4.71875q-1.453125 -1.609375 -4.015625 -1.609375zm44.75171 21.59375l-1.078125 -3.515625l-0.171875 0q-1.828125 2.3125 -3.671875 3.140625q-1.84375 0.828125 -4.734375 0.828125q-3.71875 0 -5.8125 -2.0q-2.078125 -2.0 -2.078125 -5.671875q0 -3.90625 2.890625 -5.875q2.90625 -1.984375 8.828125 -2.171875l4.34375 -0.140625l0 -1.34375q0 -2.40625 -1.125 -3.59375q-1.125 -1.203125 -3.5 -1.203125q-1.9375 0 -3.71875 0.578125q-1.765625 0.5625 -3.40625 1.328125l-1.734375 -3.828125q2.046875 -1.0625 4.484375 -1.625q2.4375 -0.5625 4.609375 -0.5625q4.796875 0 7.25 2.109375q2.453125 2.09375 2.453125 6.578125l0 16.96875l-3.828125 0zm-7.96875 -3.640625q2.90625 0 4.671875 -1.625q1.765625 -1.640625 1.765625 -4.578125l0 -2.1875l-3.234375 0.140625q-3.78125 0.140625 -5.5 1.265625q-1.71875 1.125 -1.71875 3.453125q0 1.6875 1.0 2.609375q1.0 0.921875 3.015625 0.921875zm48.30896 -3.53125q0 3.6875 -2.6875 5.65625q-2.6875 1.96875 -7.703125 1.96875q-5.03125 0 -8.078125 -1.53125l0 -4.625q4.4375 2.0625 8.265625 2.0625q4.9375 0 4.9375 -2.984375q0 -0.96875 -0.546875 -1.59375q-0.546875 -0.640625 -1.796875 -1.328125q-1.25 -0.6875 -3.484375 -1.546875q-4.34375 -1.6875 -5.890625 -3.375q-1.53125 -1.6875 -1.53125 -4.375q0 -3.234375 2.609375 -5.015625q2.609375 -1.796875 7.09375 -1.796875q4.4375 0 8.40625 1.796875l-1.734375 4.046875q-4.078125 -1.6875 -6.859375 -1.6875q-4.234375 0 -4.234375 2.40625q0 1.1875 1.109375 2.015625q1.109375 0.8125 4.8125 2.25q3.125 1.203125 4.53125 2.203125q1.421875 1.0 2.09375 2.3125q0.6875 1.3125 0.6875 3.140625zm28.134888 -5.46875q0 6.171875 -3.171875 9.640625q-3.15625 3.453125 -8.8125 3.453125q-3.53125 0 -6.25 -1.59375q-2.703125 -1.59375 -4.15625 -4.578125q-1.453125 -2.984375 -1.453125 -6.921875q0 -6.125 3.140625 -9.5625q3.140625 -3.453125 8.859375 -3.453125q5.46875 0 8.65625 3.53125q3.1875 3.515625 3.1875 9.484375zm-18.328125 0q0 8.71875 6.4375 8.71875q6.375 0 6.375 -8.71875q0 -8.640625 -6.421875 -8.640625q-3.375 0 -4.890625 2.234375q-1.5 2.234375 -1.5 6.40625zm42.24948 12.640625l-0.75 -3.296875l-0.265625 0q-1.125 1.75 -3.1875 2.75q-2.0625 1.0 -4.703125 1.0q-4.578125 0 -6.84375 -2.265625q-2.25 -2.28125 -2.25 -6.90625l0 -16.484375l5.40625 0l0 15.546875q0 2.890625 1.1875 4.34375q1.1875 1.4375 3.703125 1.4375q3.375 0 4.953125 -2.015625q1.59375 -2.015625 1.59375 -6.75l0 -12.5625l5.375 0l0 25.203125l-4.21875 0zm24.631409 -25.65625q1.609375 0 2.65625 0.234375l-0.515625 4.984375q-1.140625 -0.265625 -2.375 -0.265625q-3.203125 0 -5.203125 2.09375q-1.984375 2.09375 -1.984375 5.4375l0 13.171875l-5.359375 0l0 -25.203125l4.1875 0l0.703125 4.453125l0.28125 0q1.25 -2.265625 3.265625 -3.578125q2.015625 -1.328125 4.34375 -1.328125zm17.490967 26.109375q-5.71875 0 -8.6875 -3.328125q-2.96875 -3.34375 -2.96875 -9.59375q0 -6.34375 3.109375 -9.765625q3.109375 -3.421875 8.984375 -3.421875q3.984375 0 7.171875 1.484375l-1.609375 4.3125q-3.40625 -1.328125 -5.609375 -1.328125q-6.53125 0 -6.53125 8.6875q0 4.234375 1.625 6.359375q1.625 2.125 4.765625 2.125q3.578125 0 6.765625 -1.765625l0 4.671875q-1.4375 0.84375 -3.0625 1.203125q-1.625 0.359375 -3.953125 0.359375zm23.944092 0q-5.875 0 -9.1875 -3.421875q-3.3125 -3.4375 -3.3125 -9.453125q0 -6.171875 3.0625 -9.703125q3.078125 -3.53125 8.453125 -3.53125q5.0 0 7.890625 3.03125q2.890625 3.03125 2.890625 8.34375l0 2.890625l-16.78125 0q0.109375 3.671875 1.96875 5.640625q1.875 1.96875 5.265625 1.96875q2.234375 0 4.15625 -0.421875q1.921875 -0.421875 4.140625 -1.40625l0 4.359375q-1.953125 0.9375 -3.96875 1.3125q-2.0 0.390625 -4.578125 0.390625zm-0.984375 -22.046875q-2.546875 0 -4.09375 1.625q-1.53125 1.609375 -1.828125 4.703125l11.4375 0q-0.046875 -3.125 -1.5 -4.71875q-1.453125 -1.609375 -4.015625 -1.609375zm34.72046 21.59375l-9.5625 -25.203125l5.65625 0l5.125 14.65625q1.3125 3.6875 1.59375 5.96875l0.171875 0q0.203125 -1.640625 1.59375 -5.96875l5.125 -14.65625l5.703125 0l-9.609375 25.203125l-5.796875 0zm24.593384 0l-5.359375 0l0 -25.203125l5.359375 0l0 25.203125zm-5.671875 -31.875q0 -1.4375 0.78125 -2.203125q0.78125 -0.78125 2.234375 -0.78125q1.421875 0 2.203125 0.78125q0.78125 0.765625 0.78125 2.203125q0 1.375 -0.78125 2.15625q-0.78125 0.78125 -2.203125 0.78125q-1.453125 0 -2.234375 -0.78125q-0.78125 -0.78125 -0.78125 -2.15625zm21.820618 32.328125q-4.71875 0 -7.359375 -3.40625q-2.640625 -3.421875 -2.640625 -9.59375q0 -6.203125 2.671875 -9.65625q2.671875 -3.453125 7.421875 -3.453125q4.953125 0 7.5625 3.671875l0.265625 0q-0.390625 -2.703125 -0.390625 -4.28125l0 -9.1875l5.375 0l0 35.453125l-4.1875 0l-0.9375 -3.296875l-0.25 0q-2.5625 3.75 -7.53125 3.75zm1.4375 -4.328125q3.296875 0 4.796875 -1.859375q1.515625 -1.859375 1.546875 -6.015625l0 -0.75q0 -4.765625 -1.546875 -6.765625q-1.546875 -2.015625 -4.84375 -2.015625q-2.828125 0 -4.359375 2.296875q-1.515625 2.28125 -1.515625 6.515625q0 4.203125 1.46875 6.40625q1.484375 2.1875 4.453125 2.1875zm30.13153 4.328125q-5.875 0 -9.1875 -3.421875q-3.3125 -3.4375 -3.3125 -9.453125q0 -6.171875 3.0625 -9.703125q3.078125 -3.53125 8.453125 -3.53125q5.0 0 7.890625 3.03125q2.890625 3.03125 2.890625 8.34375l0 2.890625l-16.78125 0q0.109375 3.671875 1.96875 5.640625q1.875 1.96875 5.265625 1.96875q2.234375 0 4.15625 -0.421875q1.921875 -0.421875 4.140625 -1.40625l0 4.359375q-1.953125 0.9375 -3.96875 1.3125q-2.0 0.390625 -4.578125 0.390625zm-0.984375 -22.046875q-2.546875 0 -4.09375 1.625q-1.53125 1.609375 -1.828125 4.703125l11.4375 0q-0.046875 -3.125 -1.5 -4.71875q-1.453125 -1.609375 -4.015625 -1.609375zm39.210144 8.953125q0 6.171875 -3.171875 9.640625q-3.15625 3.453125 -8.8125 3.453125q-3.53125 0 -6.25 -1.59375q-2.703125 -1.59375 -4.15625 -4.578125q-1.453125 -2.984375 -1.453125 -6.921875q0 -6.125 3.140625 -9.5625q3.140625 -3.453125 8.859375 -3.453125q5.46875 0 8.65625 3.53125q3.1875 3.515625 3.1875 9.484375zm-18.328125 0q0 8.71875 6.4375 8.71875q6.375 0 6.375 -8.71875q0 -8.640625 -6.421875 -8.640625q-3.375 0 -4.890625 2.234375q-1.5 2.234375 -1.5 6.40625zm49.478638 -13.015625q4.71875 0 7.34375 3.421875q2.625 3.421875 2.625 9.59375q0 6.1875 -2.671875 9.640625q-2.65625 3.453125 -7.390625 3.453125q-4.78125 0 -7.421875 -3.4375l-0.375 0l-0.96875 2.984375l-4.015625 0l0 -35.453125l5.359375 0l0 8.4375q0 0.9375 -0.09375 2.78125q-0.09375 1.84375 -0.140625 2.34375l0.234375 0q2.546875 -3.765625 7.515625 -3.765625zm-1.390625 4.375q-3.234375 0 -4.671875 1.90625q-1.421875 1.90625 -1.453125 6.359375l0 0.375q0 4.59375 1.453125 6.65625q1.453125 2.0625 4.765625 2.0625q2.84375 0 4.3125 -2.25q1.46875 -2.25 1.46875 -6.515625q0 -8.59375 -5.875 -8.59375zm28.584595 21.734375q-5.875 0 -9.1875 -3.421875q-3.3125 -3.4375 -3.3125 -9.453125q0 -6.171875 3.0625 -9.703125q3.078125 -3.53125 8.453125 -3.53125q5.0 0 7.890625 3.03125q2.890625 3.03125 2.890625 8.34375l0 2.890625l-16.78125 0q0.109375 3.671875 1.96875 5.640625q1.875 1.96875 5.265625 1.96875q2.234375 0 4.15625 -0.421875q1.921875 -0.421875 4.140625 -1.40625l0 4.359375q-1.953125 0.9375 -3.96875 1.3125q-2.0 0.390625 -4.578125 0.390625zm-0.984375 -22.046875q-2.546875 0 -4.09375 1.625q-1.53125 1.609375 -1.828125 4.703125l11.4375 0q-0.046875 -3.125 -1.5 -4.71875q-1.453125 -1.609375 -4.015625 -1.609375zm22.22583 21.59375l-5.359375 0l0 -35.453125l5.359375 0l0 35.453125zm29.992554 -12.640625q0 6.171875 -3.171875 9.640625q-3.15625 3.453125 -8.8125 3.453125q-3.53125 0 -6.25 -1.59375q-2.703125 -1.59375 -4.15625 -4.578125q-1.453125 -2.984375 -1.453125 -6.921875q0 -6.125 3.140625 -9.5625q3.140625 -3.453125 8.859375 -3.453125q5.46875 0 8.65625 3.53125q3.1875 3.515625 3.1875 9.484375zm-18.328125 0q0 8.71875 6.4375 8.71875q6.375 0 6.375 -8.71875q0 -8.640625 -6.421875 -8.640625q-3.375 0 -4.890625 2.234375q-1.5 2.234375 -1.5 6.40625zm45.140137 12.640625l-3.25 -11.75q-0.59375 -1.875 -2.140625 -8.6875l-0.203125 0q-1.328125 6.15625 -2.09375 8.734375l-3.359375 11.703125l-5.921875 0l-7.0625 -25.203125l5.46875 0l3.21875 12.421875q1.09375 4.609375 1.546875 7.890625l0.140625 0q0.21875 -1.671875 0.6875 -3.8125q0.46875 -2.15625 0.8125 -3.234375l3.828125 -13.265625l5.875 0l3.71875 13.265625q0.328125 1.109375 0.84375 3.421875q0.515625 2.296875 0.609375 3.578125l0.1875 0q0.328125 -2.8125 1.59375 -7.84375l3.25 -12.421875l5.375 0l-7.109375 25.203125l-6.015625 0z" fill-rule="nonzero"/><path fill="#d9d9d9" d="m492.0 482.65842l28.232178 0l0 -45.679413l39.535645 0l0 45.679413l28.232178 0l-48.0 43.958405z" fill-rule="evenodd"/></g></svg>